<svg xmlns="http://www.w3.org/2000/svg" width="360" height="364.166" viewBox="0 0 360 364.166">
  <defs>
    <style>
      .cls-1 {
        fill: #ff4c60;
      }

      .cls-2 {
        fill: #fff;
        font-size: 222px;
        font-family: BrushScriptMT, Brush Script MT;
      }
    </style>
  </defs>
  <g id="Group_15" data-name="Group 15" transform="translate(-55 -58)">
    <g id="Group_14" data-name="Group 14">
      <path id="Subtraction_2" data-name="Subtraction 2" class="cls-1" d="M-6066,620a158.2,158.2,0,0,1-31.64-3.189,156.179,156.179,0,0,1-29.47-9.149,157,157,0,0,1-26.669-14.474,158.1,158.1,0,0,1-23.236-19.172,158.129,158.129,0,0,1-19.171-23.234,157.172,157.172,0,0,1-14.476-26.669,156.107,156.107,0,0,1-9.147-29.47A158.072,158.072,0,0,1-6223,463a158.072,158.072,0,0,1,3.191-31.641,156.256,156.256,0,0,1,4.065-15.671A12.415,12.415,0,0,0-6208.5,418a12.515,12.515,0,0,0,12.5-12.5,12.569,12.569,0,0,0-10.638-12.363,157.834,157.834,0,0,1,10.45-17.919c.807-1.194,1.646-2.4,2.5-3.585A10.015,10.015,0,0,0-6191,372a10.011,10.011,0,0,0,10-10,10.024,10.024,0,0,0-1.14-4.643c.813-.894,1.635-1.777,2.443-2.625A17.56,17.56,0,0,0-6165.5,362a17.52,17.52,0,0,0,17.5-17.5,17.4,17.4,0,0,0-4.979-12.225,157.037,157.037,0,0,1,25.867-13.936c1.674-.708,3.395-1.4,5.115-2.057A9.945,9.945,0,0,0-6112,326a10.011,10.011,0,0,0,10-10,9.958,9.958,0,0,0-1.623-5.463c1.99-.49,4-.943,5.981-1.348A158.184,158.184,0,0,1-6066,306a158.183,158.183,0,0,1,31.641,3.189,156.194,156.194,0,0,1,29.471,9.149,157.021,157.021,0,0,1,26.668,14.474,158.106,158.106,0,0,1,23.236,19.172,158.2,158.2,0,0,1,19.172,23.234,157.069,157.069,0,0,1,14.474,26.669,156.135,156.135,0,0,1,9.149,29.471A158.165,158.165,0,0,1-5909,463a158.165,158.165,0,0,1-3.189,31.641,156.129,156.129,0,0,1-9.149,29.47,157.078,157.078,0,0,1-14.474,26.669,158.214,158.214,0,0,1-19.172,23.234,158.1,158.1,0,0,1-23.236,19.172,156.99,156.99,0,0,1-26.668,14.474,156.194,156.194,0,0,1-29.471,9.149A158.2,158.2,0,0,1-6066,620Zm-138-187a7.008,7.008,0,0,0-7,7,7.008,7.008,0,0,0,7,7,7.008,7.008,0,0,0,7-7A7.008,7.008,0,0,0-6204,433Zm23.5-15a2.5,2.5,0,0,0-2.5,2.5,2.5,2.5,0,0,0,2.5,2.5,2.5,2.5,0,0,0,2.5-2.5A2.5,2.5,0,0,0-6180.5,418Zm25.5-8a5.006,5.006,0,0,0-5,5,5,5,0,0,0,5,5,5.006,5.006,0,0,0,5-5A5.007,5.007,0,0,0-6155,410Zm-28-22a5.006,5.006,0,0,0-5,5,5.006,5.006,0,0,0,5,5,5.006,5.006,0,0,0,5-5A5,5,0,0,0-6183,388Zm47.5-6a7.508,7.508,0,0,0-7.5,7.5,7.508,7.508,0,0,0,7.5,7.5,7.508,7.508,0,0,0,7.5-7.5A7.508,7.508,0,0,0-6135.5,382Zm-30-15a11.514,11.514,0,0,0-11.5,11.5,11.513,11.513,0,0,0,11.5,11.5,11.512,11.512,0,0,0,11.5-11.5A11.513,11.513,0,0,0-6165.5,367Zm37.5-30a10.011,10.011,0,0,0-10,10,10.011,10.011,0,0,0,10,10,10.011,10.011,0,0,0,10-10A10.011,10.011,0,0,0-6128,337Zm31,3a5.006,5.006,0,0,0-5,5,5,5,0,0,0,5,5,5.005,5.005,0,0,0,5-5A5.006,5.006,0,0,0-6097,340Z" transform="translate(6324 -205)"/>
      <circle id="Ellipse_10" data-name="Ellipse 10" class="cls-1" cx="5" cy="5" r="5" transform="translate(68 68)"/>
      <circle id="Ellipse_11" data-name="Ellipse 11" class="cls-1" cx="6.5" cy="6.5" r="6.5" transform="translate(101 100)"/>
      <circle id="Ellipse_12" data-name="Ellipse 12" class="cls-1" cx="6.5" cy="6.5" r="6.5" transform="translate(55 137)"/>
      <circle id="Ellipse_13" data-name="Ellipse 13" class="cls-1" cx="8" cy="8" r="8" transform="translate(71 104)"/>
      <circle id="Ellipse_14" data-name="Ellipse 14" class="cls-1" cx="8.5" cy="8.5" r="8.5" transform="translate(97 141)"/>
      <circle id="Ellipse_15" data-name="Ellipse 15" class="cls-1" cx="12.5" cy="12.5" r="12.5" transform="translate(114 58)"/>
      <circle id="Ellipse_16" data-name="Ellipse 16" class="cls-1" cx="11" cy="11" r="11" transform="translate(73 180)"/>
      <circle id="Ellipse_17" data-name="Ellipse 17" class="cls-1" cx="10" cy="10" r="10" transform="translate(137 107)"/>
      <circle id="Ellipse_18" data-name="Ellipse 18" class="cls-1" cx="10" cy="10" r="10" transform="translate(175 78)"/>
      <text id="S" class="cls-2" transform="matrix(0.966, -0.259, 0.259, 0.966, 200.395, 349.721)"><tspan x="0" y="0">S</tspan></text>
    </g>
  </g>
</svg>
